<svg xmlns="http://www.w3.org/2000/svg" xmlns:xlink="http://www.w3.org/1999/xlink" version="1.1" width="256" height="256" viewBox="0 0 256 256" xml:space="preserve">
<desc>Created with Fabric.js 1.7.22</desc>
<defs>
</defs>
<g transform="translate(128 128) scale(0.72 0.72)" style="">
	<g style="stroke: none; stroke-width: 0; stroke-dasharray: none; stroke-linecap: butt; stroke-linejoin: miter; stroke-miterlimit: 10; fill: none; fill-rule: nonzero; opacity: 1;" transform="translate(-175.05 -175.05000000000004) scale(3.89 3.89)" >
	<path d="M 38.789 51.211 l 10.876 10.876 c 0.974 0.974 2.471 1.194 3.684 0.543 l 13.034 -6.997 c 0.964 -0.518 2.129 -0.493 3.07 0.066 l 19.017 11.285 c 1.357 0.805 1.903 2.489 1.268 3.933 c -1.625 3.698 -4.583 10.476 -5.758 13.473 c -0.247 0.631 -0.615 1.209 -1.127 1.652 c -12.674 10.986 -37.89 -2.4 -57.191 -21.701 C 6.358 45.039 -7.028 19.823 3.958 7.149 c 0.444 -0.512 1.022 -0.88 1.652 -1.127 c 2.996 -1.175 9.775 -4.133 13.473 -5.758 c 1.444 -0.635 3.128 -0.089 3.933 1.268 l 11.285 19.017 c 0.558 0.941 0.583 2.106 0.066 3.07 L 27.37 36.651 c -0.651 1.213 -0.431 2.71 0.543 3.684 C 27.913 40.335 38.789 51.211 38.789 51.211 z" style="stroke: none; stroke-width: 1; stroke-dasharray: none; stroke-linecap: butt; stroke-linejoin: miter; stroke-miterlimit: 10; fill: rgb(0,0,0); fill-rule: nonzero; opacity: 1;" transform=" matrix(1 0 0 1 0 0) " stroke-linecap="round" />
	<path d="M 60.282 42.839 l 13.376 -13.376 l 5.134 5.134 c 0.843 0.843 2.284 0.458 2.592 -0.695 l 8.561 -31.95 C 90.254 0.8 89.2 -0.254 88.048 0.054 l -31.95 8.561 c -1.152 0.309 -1.538 1.749 -0.695 2.592 l 5.134 5.134 L 47.161 29.718 c -0.628 0.628 -0.628 1.646 0 2.274 l 10.847 10.847 C 58.636 43.467 59.654 43.467 60.282 42.839 z" style="stroke: none; stroke-width: 1; stroke-dasharray: none; stroke-linecap: butt; stroke-linejoin: miter; stroke-miterlimit: 10; fill: rgb(0,0,0); fill-rule: nonzero; opacity: 1;" transform=" matrix(1 0 0 1 0 0) " stroke-linecap="round" />
</g>
</g>
</svg>